<svg xmlns="http://www.w3.org/2000/svg" viewBox="0 0 64 64" fill="none" role="img" aria-label="Millishion i świątynia Millis">
  <title>Millishion: świątynia i stolica Millis</title>
  <g stroke="#3d3529" stroke-linecap="round" stroke-linejoin="round">
    <path d="M12 52V35l8-5 6 5v17m12 0V35l6-5 8 5v17" fill="#f2e5ca" stroke-width="2"/>
    <path d="M20 30v-8l12-11 12 11v8M18 25l14-13 14 13" stroke-width="2"/>
    <path d="M24 51V27l8-7 8 7v24" fill="#f2e5ca" stroke-width="2.2"/>
    <path d="M28 51V39a4 4 0 0 1 8 0v12" fill="#bd9652" fill-opacity=".38" stroke-width="1.8"/>
    <circle cx="32" cy="29" r="3" fill="#bd9652" stroke-width="1.5"/>
    <path d="M32 10V5m-6 5-3-4m15 4 3-4M16 52c10 4 22 4 32 0M9 54c14 7 32 7 46 0" stroke-width="1.8"/>
    <path d="M16 42v5m32-5v5M8 55v-7l5-3m43 10v-7l-5-3" stroke-width="1.6"/>
  </g>
</svg>
